<svg width="1099" height="341" viewBox="0 0 1099 341" fill="none" xmlns="http://www.w3.org/2000/svg">
<g filter="url(#filter0_di_77_7)">
<path d="M144.845 16.5C150.873 16.5 157.017 19.9429 163.277 26.8286C169.769 33.7144 173.014 39.4523 173.014 44.043C173.014 48.4249 172.087 50.6158 170.232 50.6158C168.609 50.6158 165.364 49.8858 160.495 48.4249C155.626 46.7559 151.221 45.921 147.28 45.921C138.238 45.921 127.225 50.0939 114.242 58.4405C101.49 66.7872 89.3184 77.1158 77.7264 89.4265C66.366 101.737 56.6286 115.822 48.5141 131.68C40.3996 147.329 36.3423 160.892 36.3423 172.369C36.3423 183.845 39.588 192.296 46.0797 197.721C52.8032 202.937 61.4973 205.545 72.1622 205.545C82.8273 205.545 93.8393 204.189 105.2 201.477C116.561 198.556 125.834 195.321 133.021 191.774C151.568 182.801 161.77 178.315 163.625 178.315C167.566 178.315 169.537 180.715 169.537 185.514C169.537 190.105 164.205 196.365 153.539 204.293C142.874 212.014 129.659 219.004 113.894 225.264C98.129 231.523 83.9862 234.653 71.4666 234.653C55.2375 234.653 39.9358 228.394 25.5615 215.874C11.1872 203.146 4 189.166 4 173.933C4 154.319 11.0712 132.202 25.2137 107.58C39.588 82.7496 57.9038 61.3615 80.1608 43.4171C102.65 25.4726 124.211 16.5 144.845 16.5Z" fill="white"/>
<path d="M116.155 316.5C110.127 316.5 103.983 313.057 97.723 306.171C91.2311 299.286 87.9856 293.548 87.9856 288.957C87.9856 284.575 88.9133 282.384 90.7677 282.384C92.3909 282.384 95.6364 283.114 100.505 284.575C105.374 286.244 109.779 287.079 113.72 287.079C122.762 287.079 133.775 282.906 146.758 274.56C159.51 266.213 171.682 255.884 183.274 243.574C194.634 231.263 204.372 217.178 212.486 201.32C220.6 185.671 224.658 172.108 224.658 160.632C224.658 149.155 221.412 140.704 214.92 135.279C208.197 130.063 199.503 127.455 188.838 127.455C178.173 127.455 167.161 128.811 155.8 131.524C144.439 134.444 135.166 137.679 127.979 141.226C109.431 150.199 99.2297 154.685 97.3753 154.685C93.4342 154.685 91.4633 152.285 91.4633 147.486C91.4633 142.895 96.7954 136.635 107.46 128.707C118.126 120.986 131.341 113.996 147.106 107.736C162.871 101.477 177.014 98.3467 189.533 98.3467C205.763 98.3467 221.064 104.606 235.438 117.126C249.813 129.855 257 143.834 257 159.067C257 178.681 249.929 200.798 235.786 225.42C221.412 250.25 203.096 271.639 180.839 289.583C158.35 307.527 136.788 316.5 116.155 316.5Z" fill="white"/>
</g>
<g filter="url(#filter1_d_77_7)">
<path d="M409.487 18.5279C430.999 18.8617 450.361 23.8691 467.57 33.5503L459.272 76.1142L455.585 77.6164C441.14 66.2661 425.006 60.5909 407.182 60.5909C370.611 60.5909 352.325 86.7969 352.325 139.209C352.325 195.627 371.072 224.003 408.565 224.336C427.004 224.336 444.061 218.828 459.734 207.812L463.883 210.316L460.195 253.38C442.677 262.06 424.238 266.567 404.877 266.901C371.686 266.901 346.332 256.384 328.815 235.352C311.605 214.321 303 183.942 303 144.216C303 104.49 312.22 73.6105 330.659 51.5774C349.098 29.5444 375.374 18.5279 409.487 18.5279ZM539.77 263.395H494.133L496.438 190.786L494.594 4.006L540.231 0L537.465 186.781L539.77 263.395ZM607.278 3.50525C614.655 3.50525 620.34 5.84209 624.335 10.5158C628.33 14.8556 630.328 21.1984 630.328 29.5444C630.328 37.5564 628.176 44.0661 623.874 49.0736C619.572 54.0811 613.579 56.5849 605.896 56.5849C598.52 56.5849 592.681 54.4149 588.378 50.0752C584.383 45.4015 582.385 39.0586 582.385 31.0466C582.385 23.0345 584.691 16.5247 589.301 11.5173C593.91 6.17593 599.903 3.50525 607.278 3.50525ZM628.945 263.395H582.847L585.151 191.287L583.308 92.1382L629.406 88.1322L626.179 186.781L628.945 263.395ZM865.028 154.733C865.335 136.371 858.114 127.191 843.362 127.191C832.914 127.191 822.003 132.198 810.632 142.214L810.171 186.781L811.555 263.395H765.917L768.682 154.733C768.682 136.371 761.307 127.191 746.555 127.191C736.107 127.191 725.043 132.198 713.364 142.214V186.781L715.67 263.395H670.032L672.337 191.287L670.494 92.1382L713.826 88.1322V113.671H716.13C729.346 100.985 743.175 91.9713 757.619 86.63C783.741 86.63 800.337 95.9773 807.405 114.672H808.789C822.31 101.319 837.369 91.9713 853.964 86.63C871.482 86.63 884.696 90.9699 893.609 99.6495C902.828 108.329 907.285 120.681 906.978 136.706L906.055 186.781L907.9 263.395H862.262L865.028 154.733ZM1031.85 86.63C1052.44 86.63 1068.11 94.1413 1078.87 109.164C1089.62 123.852 1095 145.719 1095 174.762C1095 203.472 1087.78 226.173 1073.33 242.864C1059.2 259.223 1039.68 267.402 1014.79 267.402C1007.41 267.402 999.731 266.567 991.74 264.897L992.663 333H947.486L949.791 191.287L947.486 92.1382L991.279 88.1322L990.818 113.671H993.584C1005.57 101.652 1018.32 92.639 1031.85 86.63ZM1015.25 234.853C1039.53 234.518 1051.67 216.491 1051.67 180.771C1051.67 144.717 1041.37 126.857 1020.78 127.191C1011.26 127.191 1001.27 132.532 990.818 143.214V186.781L991.279 228.844C999.577 232.515 1007.57 234.518 1015.25 234.853Z" fill="white"/>
</g>
<defs>
<filter id="filter0_di_77_7" x="0" y="16.5" width="261" height="308" filterUnits="userSpaceOnUse" color-interpolation-filters="sRGB">
<feFlood flood-opacity="0" result="BackgroundImageFix"/>
<feColorMatrix in="SourceAlpha" type="matrix" values="0 0 0 0 0 0 0 0 0 0 0 0 0 0 0 0 0 0 127 0" result="hardAlpha"/>
<feOffset dy="4"/>
<feGaussianBlur stdDeviation="2"/>
<feComposite in2="hardAlpha" operator="out"/>
<feColorMatrix type="matrix" values="0 0 0 0 0 0 0 0 0 0 0 0 0 0 0 0 0 0 0.25 0"/>
<feBlend mode="normal" in2="BackgroundImageFix" result="effect1_dropShadow_77_7"/>
<feBlend mode="normal" in="SourceGraphic" in2="effect1_dropShadow_77_7" result="shape"/>
<feColorMatrix in="SourceAlpha" type="matrix" values="0 0 0 0 0 0 0 0 0 0 0 0 0 0 0 0 0 0 127 0" result="hardAlpha"/>
<feOffset dy="4"/>
<feGaussianBlur stdDeviation="2"/>
<feComposite in2="hardAlpha" operator="arithmetic" k2="-1" k3="1"/>
<feColorMatrix type="matrix" values="0 0 0 0 0 0 0 0 0 0 0 0 0 0 0 0 0 0 0.25 0"/>
<feBlend mode="normal" in2="shape" result="effect2_innerShadow_77_7"/>
</filter>
<filter id="filter1_d_77_7" x="299" y="0" width="800" height="341" filterUnits="userSpaceOnUse" color-interpolation-filters="sRGB">
<feFlood flood-opacity="0" result="BackgroundImageFix"/>
<feColorMatrix in="SourceAlpha" type="matrix" values="0 0 0 0 0 0 0 0 0 0 0 0 0 0 0 0 0 0 127 0" result="hardAlpha"/>
<feOffset dy="4"/>
<feGaussianBlur stdDeviation="2"/>
<feComposite in2="hardAlpha" operator="out"/>
<feColorMatrix type="matrix" values="0 0 0 0 0 0 0 0 0 0 0 0 0 0 0 0 0 0 0.25 0"/>
<feBlend mode="normal" in2="BackgroundImageFix" result="effect1_dropShadow_77_7"/>
<feBlend mode="normal" in="SourceGraphic" in2="effect1_dropShadow_77_7" result="shape"/>
</filter>
</defs>
</svg>
