<svg width="261" height="308" viewBox="0 0 261 308" fill="none" xmlns="http://www.w3.org/2000/svg">
<g filter="url(#filter0_di_77_8)">
<path d="M144.845 0C150.873 0 157.017 3.44288 163.277 10.3286C169.769 17.2144 173.014 22.9523 173.014 27.543C173.014 31.9249 172.087 34.1158 170.232 34.1158C168.609 34.1158 165.364 33.3858 160.495 31.9249C155.626 30.2559 151.221 29.421 147.28 29.421C138.238 29.421 127.225 33.5939 114.242 41.9405C101.49 50.2872 89.3184 60.6158 77.7264 72.9265C66.366 85.2371 56.6286 99.3216 48.5141 115.18C40.3996 130.829 36.3423 144.392 36.3423 155.869C36.3423 167.345 39.588 175.796 46.0797 181.221C52.8032 186.437 61.4973 189.045 72.1622 189.045C82.8273 189.045 93.8393 187.689 105.2 184.977C116.561 182.056 125.834 178.821 133.021 175.274C151.568 166.301 161.77 161.815 163.625 161.815C167.566 161.815 169.537 164.215 169.537 169.014C169.537 173.605 164.205 179.865 153.539 187.793C142.874 195.514 129.659 202.504 113.894 208.764C98.129 215.023 83.9862 218.153 71.4666 218.153C55.2375 218.153 39.9358 211.894 25.5615 199.374C11.1872 186.646 4 172.666 4 157.433C4 137.819 11.0712 115.702 25.2137 91.0798C39.588 66.2496 57.9038 44.8615 80.1608 26.9171C102.65 8.97261 124.211 0 144.845 0Z" fill="white"/>
<path d="M116.155 300C110.127 300 103.983 296.557 97.723 289.671C91.2311 282.786 87.9856 277.048 87.9856 272.457C87.9856 268.075 88.9133 265.884 90.7677 265.884C92.3909 265.884 95.6364 266.614 100.505 268.075C105.374 269.744 109.779 270.579 113.72 270.579C122.762 270.579 133.775 266.406 146.758 258.059C159.51 249.713 171.682 239.384 183.274 227.074C194.634 214.763 204.372 200.678 212.486 184.82C220.6 169.171 224.658 155.608 224.658 144.131C224.658 132.655 221.412 124.204 214.92 118.779C208.197 113.563 199.503 110.955 188.838 110.955C178.173 110.955 167.161 112.311 155.8 115.023C144.439 117.944 135.166 121.179 127.979 124.726C109.431 133.699 99.2297 138.185 97.3753 138.185C93.4342 138.185 91.4633 135.785 91.4633 130.986C91.4633 126.395 96.7954 120.135 107.46 112.207C118.126 104.486 131.341 97.4961 147.106 91.2363C162.871 84.9765 177.014 81.8466 189.533 81.8466C205.763 81.8466 221.064 88.1064 235.438 100.626C249.813 113.354 257 127.334 257 142.566C257 162.181 249.929 184.298 235.786 208.92C221.412 233.75 203.096 255.138 180.839 273.083C158.35 291.027 136.788 300 116.155 300Z" fill="white"/>
</g>
<defs>
<filter id="filter0_di_77_8" x="0" y="0" width="261" height="308" filterUnits="userSpaceOnUse" color-interpolation-filters="sRGB">
<feFlood flood-opacity="0" result="BackgroundImageFix"/>
<feColorMatrix in="SourceAlpha" type="matrix" values="0 0 0 0 0 0 0 0 0 0 0 0 0 0 0 0 0 0 127 0" result="hardAlpha"/>
<feOffset dy="4"/>
<feGaussianBlur stdDeviation="2"/>
<feComposite in2="hardAlpha" operator="out"/>
<feColorMatrix type="matrix" values="0 0 0 0 0 0 0 0 0 0 0 0 0 0 0 0 0 0 0.25 0"/>
<feBlend mode="normal" in2="BackgroundImageFix" result="effect1_dropShadow_77_8"/>
<feBlend mode="normal" in="SourceGraphic" in2="effect1_dropShadow_77_8" result="shape"/>
<feColorMatrix in="SourceAlpha" type="matrix" values="0 0 0 0 0 0 0 0 0 0 0 0 0 0 0 0 0 0 127 0" result="hardAlpha"/>
<feOffset dy="4"/>
<feGaussianBlur stdDeviation="2"/>
<feComposite in2="hardAlpha" operator="arithmetic" k2="-1" k3="1"/>
<feColorMatrix type="matrix" values="0 0 0 0 0 0 0 0 0 0 0 0 0 0 0 0 0 0 0.25 0"/>
<feBlend mode="normal" in2="shape" result="effect2_innerShadow_77_8"/>
</filter>
</defs>
</svg>
